<svg xmlns="http://www.w3.org/2000/svg" viewBox="0 0 120 120" width="120" height="120">
  <defs>
    <linearGradient id="shieldFill" x1="0%" y1="0%" x2="100%" y2="100%">
      <stop offset="0%" stop-color="#4a6d8c"/>
      <stop offset="100%" stop-color="#2d4a6e"/>
    </linearGradient>
  </defs>

  <!-- Outer shield -->
  <path d="M 60 8 L 104 28 L 104 68 L 60 112 L 16 68 L 16 28 Z" 
        fill="none" stroke="#4a6d8c" stroke-width="3" stroke-linejoin="round"/>

  <!-- Inner shield -->
  <path d="M 60 20 L 92 36 L 92 64 L 60 98 L 28 64 L 28 36 Z" 
        fill="none" stroke="#4a6d8c" stroke-width="1.5" stroke-linejoin="round" opacity="0.5"/>

  <!-- Crosshair / scope -->
  <line x1="60" y1="30" x2="60" y2="52" stroke="#4a6d8c" stroke-width="1.8" opacity="0.7"/>
  <line x1="60" y1="68" x2="60" y2="90" stroke="#4a6d8c" stroke-width="1.8" opacity="0.7"/>
  <line x1="34" y1="60" x2="52" y2="60" stroke="#4a6d8c" stroke-width="1.8" opacity="0.7"/>
  <line x1="68" y1="60" x2="86" y2="60" stroke="#4a6d8c" stroke-width="1.8" opacity="0.7"/>

  <!-- Center circle -->
  <circle cx="60" cy="60" r="8" fill="none" stroke="#4a6d8c" stroke-width="1.8" opacity="0.6"/>
  <circle cx="60" cy="60" r="3" fill="#4a6d8c" opacity="0.7"/>

  <!-- Wing accents - left -->
  <line x1="16" y1="48" x2="6" y2="38" stroke="#4a6d8c" stroke-width="1.5" opacity="0.4" stroke-linecap="round"/>
  <line x1="18" y1="40" x2="8" y2="28" stroke="#4a6d8c" stroke-width="1.5" opacity="0.3" stroke-linecap="round"/>
  <line x1="22" y1="33" x2="12" y2="20" stroke="#4a6d8c" stroke-width="1.5" opacity="0.2" stroke-linecap="round"/>

  <!-- Wing accents - right -->
  <line x1="104" y1="48" x2="114" y2="38" stroke="#4a6d8c" stroke-width="1.5" opacity="0.4" stroke-linecap="round"/>
  <line x1="102" y1="40" x2="112" y2="28" stroke="#4a6d8c" stroke-width="1.5" opacity="0.3" stroke-linecap="round"/>
  <line x1="98" y1="33" x2="108" y2="20" stroke="#4a6d8c" stroke-width="1.5" opacity="0.2" stroke-linecap="round"/>
</svg>
